<?xml version="1.0" encoding="UTF-8"?>
<svg version="1.1" xmlns="http://www.w3.org/2000/svg" width="320" height="320">
<path d="M0 0 C3.96 0 7.92 0 12 0 C12 0.66 12 1.32 12 2 C12.99 1.67 13.98 1.34 15 1 C22.37323818 3.99180174 29.74664296 10.76709016 33 18 C33.804375 19.5159375 33.804375 19.5159375 34.625 21.0625 C36 24 36 24 36 27 C35.34 27 34.68 27 34 27 C34 27.66 34 28.32 34 29 C34.99 29.33 35.98 29.66 37 30 C37 32.97 37 35.94 37 39 C36.01 39.33 35.02 39.66 34 40 C34 40.66 34 41.32 34 42 C34.66 42.33 35.32 42.66 36 43 C35.34 43.99 34.68 44.98 34 46 C33.855625 47.093125 33.71125 48.18625 33.5625 49.3125 C32.96938357 53.20070769 31.85876402 55.55784441 30 59 C26.7364694 65.74797507 26.7364694 65.74797507 25 73 C24.34 73 23.68 73 23 73 C22.8453125 74.7015625 22.8453125 74.7015625 22.6875 76.4375 C22.00862006 81.87823781 20.96727302 88.03272698 17 92 C16.35822405 94.09592244 16.35822405 94.09592244 15.9375 96.4375 C15.41445483 99.06137121 14.84906993 101.45279021 14 104 C16.92776303 105.16301643 16.92776303 105.16301643 19.875 104.9375 C23.15185217 105.00303704 25.06406739 105.60929508 28 107 C28.680625 107.309375 29.36125 107.61875 30.0625 107.9375 C32.22972806 109.12597991 34.12234292 110.39057965 36 112 C36 112.66 36 113.32 36 114 C36.99 114 37.98 114 39 114 C39 114.99 39 115.98 39 117 C39.99 117.33 40.98 117.66 42 118 C42 118.99 42 119.98 42 121 C42.99 121.33 43.98 121.66 45 122 C45.33 123.98 45.66 125.96 46 128 C48.64 128.33 51.28 128.66 54 129 C54 129.66 54 130.32 54 131 C54.556875 130.75507813 55.11375 130.51015625 55.6875 130.2578125 C58 130 58 130 60.4375 131.5546875 C65.96140507 136.55651618 69.73058033 140.83608568 72 148 C71.67 148.33 71.34 148.66 71 149 C71.66 149.33 72.32 149.66 73 150 C73.08107583 151.93681161 73.13922475 153.8745934 73.1875 155.8125 C73.22230469 156.89144531 73.25710938 157.97039062 73.29296875 159.08203125 C73 162 73 162 71.48828125 163.88671875 C70.99714844 164.25410156 70.50601563 164.62148437 70 165 C70.66 165.33 71.32 165.66 72 166 C70.02 169.96 70.02 169.96 68 174 C67.34 174 66.68 174 66 174 C65.938125 174.53625 65.87625 175.0725 65.8125 175.625 C65 178 65 178 62.5 180.625 C59.49291816 184.02617233 59.52973025 187.00858477 59.3046875 191.41015625 C58.88496994 194.97775554 57.54168271 197.77274206 55.97265625 200.97265625 C54.87134066 203.14441396 54.87134066 203.14441396 54 206.1875 C52.80085414 209.56009773 51.16478958 212.15871368 49 215 C48.34 215 47.68 215 47 215 C46.91621094 215.56203125 46.83242187 216.1240625 46.74609375 216.703125 C43.69563693 226.09406012 31.89303726 233.73797516 24 239 C22.85425711 242.67843769 22 245.78327842 22 249.625 C22 252.69597314 21.06367448 255.14137484 20 258 C19.34 258 18.68 258 18 258 C17.67 259.98 17.34 261.96 17 264 C16.01 264 15.02 264 14 264 C13.86271484 265.11181641 13.86271484 265.11181641 13.72265625 266.24609375 C12.29010845 271.70526238 7.38607595 275.46758124 2.76171875 278.4375 C0.625 279.5625 0.625 279.5625 -3 281 C-3.66 280.67 -4.32 280.34 -5 280 C-5.33 280.66 -5.66 281.32 -6 282 C-9.48717827 283.74358913 -12.14082939 284.10719918 -16 284 C-16.33 284.33 -16.66 284.66 -17 285 C-18.47652664 285.09880797 -19.95767236 285.13079245 -21.4375 285.1328125 C-22.77941406 285.13474609 -22.77941406 285.13474609 -24.1484375 285.13671875 C-25.08945313 285.13285156 -26.03046875 285.12898438 -27 285.125 C-27.94101563 285.12886719 -28.88203125 285.13273437 -29.8515625 285.13671875 C-30.74617188 285.13542969 -31.64078125 285.13414062 -32.5625 285.1328125 C-33.38878906 285.13168457 -34.21507812 285.13055664 -35.06640625 285.12939453 C-37 285 -37 285 -38 284 C-38.99 284.061875 -38.99 284.061875 -40 284.125 C-46.87218809 283.83865883 -52.49047353 280.9719842 -58 277 C-58.94166016 276.566875 -58.94166016 276.566875 -59.90234375 276.125 C-62.44549864 274.76107336 -64.20597185 273.09517244 -66.25 271.0625 C-67.30960938 270.02802734 -67.30960938 270.02802734 -68.390625 268.97265625 C-70 267 -70 267 -70 264 C-70.99 263.67 -71.98 263.34 -73 263 C-73.495 261.515 -73.495 261.515 -74 260 C-73.67 259.67 -73.34 259.34 -73 259 C-73.66 258.67 -74.32 258.34 -75 258 C-74.67 257.01 -74.34 256.02 -74 255 C-74.66 254.67 -75.32 254.34 -76 254 C-76.02699725 251.72923158 -76.04639453 249.45837179 -76.0625 247.1875 C-76.07410156 245.92292969 -76.08570313 244.65835938 -76.09765625 243.35546875 C-76 240 -76 240 -75 237 C-75.87011719 236.75894531 -76.74023438 236.51789063 -77.63671875 236.26953125 C-81.31984223 234.87926977 -83.76629115 233.16697232 -86.8125 230.6875 C-87.76769531 229.92824219 -88.72289062 229.16898438 -89.70703125 228.38671875 C-92.17200326 225.82096424 -92.72203529 224.49000132 -93 221 C-93.8971875 220.8453125 -93.8971875 220.8453125 -94.8125 220.6875 C-97.33421352 219.89496146 -98.39685699 219.08408591 -100 217 C-100 216.01 -100 215.02 -100 214 C-100.66 214 -101.32 214 -102 214 C-102 212.68 -102 211.36 -102 210 C-102.99 209.67 -103.98 209.34 -105 209 C-107 206 -107 206 -107 203 C-107.66 202.67 -108.32 202.34 -109 202 C-111.1153734 197.76925319 -112.13414365 194.69502785 -112 190 C-112.66 189.34 -113.32 188.68 -114 188 C-114.26991906 185.31160615 -114.08737357 182.70858064 -114 180 C-113.01 180 -112.02 180 -111 180 C-111.12375 178.1128125 -111.12375 178.1128125 -111.25 176.1875 C-111.11684937 161.87380721 -100.76813118 148.45439714 -93 137 C-93.66 136.01 -94.32 135.02 -95 134 C-95 133.34 -95 132.68 -95 132 C-95.495 131.01 -95.495 131.01 -96 130 C-95.67 129.34 -95.34 128.68 -95 128 C-95.66 127.67 -96.32 127.34 -97 127 C-98.05047644 124.68895182 -99.05007438 122.35416349 -100 120 C-100.495 119.01 -100.495 119.01 -101 118 C-100.67 117.34 -100.34 116.68 -100 116 C-100.66 116 -101.32 116 -102 116 C-103.33931608 113.05350463 -104.03970882 110.67665677 -104.4375 107.4375 C-105.00254871 103.98442456 -105.55460154 102.44539846 -108 100 C-108.66 100 -109.32 100 -110 100 C-110 99.34 -110 98.68 -110 98 C-109.01 98 -108.02 98 -107 98 C-107 97.34 -107 96.68 -107 96 C-107.66 96 -108.32 96 -109 96 C-108.67 94.68 -108.34 93.36 -108 92 C-108.66 92 -109.32 92 -110 92 C-111.125 86.25 -111.125 86.25 -110 84 C-110.66 84 -111.32 84 -112 84 C-114.09813028 80.85280458 -114.2782729 78.92177755 -114.65625 75.25 C-115.42272137 70.23309648 -117.45272933 65.49779341 -119.1875 60.75 C-119.9978296 58.00734597 -120.08104696 55.83664371 -120 53 C-120.33 52.67 -120.66 52.34 -121 52 C-121.07271741 49.64686445 -121.08370868 47.29166332 -121.0625 44.9375 C-121.05347656 43.64714844 -121.04445312 42.35679688 -121.03515625 41.02734375 C-121.02355469 40.02832031 -121.01195312 39.02929688 -121 38 C-120.34 38 -119.68 38 -119 38 C-119.495 36.515 -119.495 36.515 -120 35 C-118.39422558 30.20237951 -115.78948176 26.33015064 -112 23 C-111.236875 22.154375 -110.47375 21.30875 -109.6875 20.4375 C-103.4238607 14.75652483 -97.6869169 14.43698694 -89.43359375 14.6640625 C-79.90687267 15.59614215 -74.00422778 20.7898491 -68 28 C-66.63075372 30.36665251 -66.0030829 31.98342942 -65.5 34.6875 C-65.335 35.450625 -65.17 36.21375 -65 37 C-64.01 37.495 -64.01 37.495 -63 38 C-61.67578125 40.1796875 -61.67578125 40.1796875 -60.3125 42.875 C-59.85488281 43.75929687 -59.39726563 44.64359375 -58.92578125 45.5546875 C-58 48 -58 48 -59 51 C-58.01 51.495 -58.01 51.495 -57 52 C-58 55 -58 55 -59 56 C-58.01 56 -57.02 56 -56 56 C-55.94392578 56.87011719 -55.94392578 56.87011719 -55.88671875 57.7578125 C-55.45606818 62.87495461 -54.45816367 66.41887679 -52 71 C-52.33 71.66 -52.66 72.32 -53 73 C-52.34 73 -51.68 73 -51 73 C-50.731875 73.94875 -50.46375 74.8975 -50.1875 75.875 C-48.83956113 80.59763473 -47.41901498 85.29833036 -46 90 C-44.88214887 87.88214887 -44.88214887 87.88214887 -44 85 C-43.34 85 -42.68 85 -42 85 C-42.04125 84.29875 -42.0825 83.5975 -42.125 82.875 C-41.98311511 79.61164752 -41.04857807 77.08019808 -40 74 C-40 72.68 -40 71.36 -40 70 C-39.34 69.34 -38.68 68.68 -38 68 C-38.33 67.34 -38.66 66.68 -39 66 C-38.34 66 -37.68 66 -37 66 C-37.33 64.35 -37.66 62.7 -38 61 C-37.34 61 -36.68 61 -36 61 C-36.33 60.01 -36.66 59.02 -37 58 C-36.25 55.375 -36.25 55.375 -35 52 C-33.46998025 47.73613784 -32.10090764 43.75680728 -31.5 39.25 C-30.96471889 35.77067281 -29.85613135 33.93887464 -28 31 C-27.29329272 28.30745009 -27.29329272 28.30745009 -27 26 C-26.34 26 -25.68 26 -25 26 C-24.896875 25.278125 -24.79375 24.55625 -24.6875 23.8125 C-23.5642625 19.21743751 -21.93931026 16.62620684 -18 14 C-17.505 13.154375 -17.01 12.30875 -16.5 11.4375 C-15 9 -15 9 -12 8 C-11.34 7.01 -10.68 6.02 -10 5 C-8.125 3.9375 -8.125 3.9375 -6 3 C-4.948125 2.4121875 -4.948125 2.4121875 -3.875 1.8125 C-3.25625 1.544375 -2.6375 1.27625 -2 1 C-1.01 1.495 -1.01 1.495 0 2 C0 1.34 0 0.68 0 0 Z M-4.4375 154.8125 C-7.62801522 159.27922131 -7.20975502 165.17889158 -7.3125 170.5 C-7.34988281 171.7684375 -7.38726562 173.036875 -7.42578125 174.34375 C-6.84562655 179.32562891 -4.66881947 182.20756427 -1.3125 185.8125 C3.09224552 188.07439635 7.9478206 188.46640441 12.75 187.375 C18.92729482 183.5999865 22.021806 178.63329199 23.875 171.75 C24.07995227 165.60143178 22.36280202 160.372285 19.3125 155.0625 C11.92849677 148.47676739 3.25710312 149.09087204 -4.4375 154.8125 Z M-69.0859375 161.78125 C-73.07608124 166.40655947 -73.9614036 172.72281242 -74.0625 178.6875 C-72.18900482 184.52839672 -68.70787453 188.51489171 -64.125 192.5 C-59.45630079 194.74097562 -55.62218993 194.91940828 -50.81640625 193.234375 C-46.98781615 191.46409114 -44.08537683 189.80274599 -42 186 C-39.28377157 177.85131471 -41.66204477 169.65338023 -45 162 C-48.71785586 158.19568237 -52.57902808 157.26461418 -57.7578125 156.8984375 C-62.29216502 157.10382629 -65.68816074 158.87977771 -69.0859375 161.78125 Z M-60 242 C-60 242.66 -60 243.32 -60 244 C-59.34 244 -58.68 244 -58 244 C-58.33 246.64 -58.66 249.28 -59 252 C-58.34 252 -57.68 252 -57 252 C-57.185625 252.86625 -57.37125 253.7325 -57.5625 254.625 C-57.34302134 258.00558684 -57.34302134 258.00558684 -55.2421875 259.69921875 C-50.53944185 262.9911407 -46.73729337 264.75585986 -41 265 C-41 265.66 -41 266.32 -41 267 C-39.35 266.67 -37.7 266.34 -36 266 C-35.67 266.99 -35.34 267.98 -35 269 C-34.34 269 -33.68 269 -33 269 C-33 268.34 -33 267.68 -33 267 C-32.16855469 267.0721875 -31.33710938 267.144375 -30.48046875 267.21875 C-28.85044922 267.35796875 -28.85044922 267.35796875 -27.1875 267.5 C-26.10855469 267.5928125 -25.02960938 267.685625 -23.91796875 267.78125 C-20.98909189 268.03737838 -20.98909189 268.03737838 -18 268 C-18 267.34 -18 266.68 -18 266 C-17.01 266 -16.02 266 -15 266 C-14.505 266.99 -14.505 266.99 -14 268 C-13.505 266.515 -13.505 266.515 -13 265 C-12.27425781 264.88785156 -11.54851562 264.77570313 -10.80078125 264.66015625 C-7.87436007 263.97038613 -5.77712191 262.94489186 -3.1875 261.4375 C-2.39730469 260.98246094 -1.60710937 260.52742188 -0.79296875 260.05859375 C-0.20128906 259.70925781 0.39039063 259.35992187 1 259 C1 258.01 1 257.02 1 256 C1.66 255.67 2.32 255.34 3 255 C2.505 254.01 2.505 254.01 2 253 C2.66 252.67 3.32 252.34 4 252 C4 249.03 4 246.06 4 243 C0.85111828 243.9491416 -2.29386579 244.90876504 -5.4375 245.875 C-6.33533203 246.14441406 -7.23316406 246.41382813 -8.15820312 246.69140625 C-9.01220703 246.95566406 -9.86621094 247.21992188 -10.74609375 247.4921875 C-11.53685303 247.73308105 -12.3276123 247.97397461 -13.14233398 248.22216797 C-15.19364992 248.84371722 -15.19364992 248.84371722 -16 251 C-17.32 251 -18.64 251 -20 251 C-20 251.66 -20 252.32 -20 253 C-23.96 252.67 -27.92 252.34 -32 252 C-32 251.34 -32 250.68 -32 250 C-32.99 250.33 -33.98 250.66 -35 251 C-35.33 250.67 -35.66 250.34 -36 250 C-38.99182283 248.96833696 -41.99088122 247.97925209 -45 247 C-47.68875022 246.10790886 -50.37556742 245.21004847 -53.0625 244.3125 C-54.38668735 243.87099955 -55.71090371 243.42958613 -57.03515625 242.98828125 C-58.50275391 242.49908203 -58.50275391 242.49908203 -60 242 Z " fill="#000000" transform="translate(185,18)"/>
<path d="" fill="#000000" transform="translate(0,0)"/>
</svg>
